<?xml version="1.0" encoding="utf-8"?>
<!-- Generator: Adobe Illustrator 17.0.2, SVG Export Plug-In . SVG Version: 6.00 Build 0)  -->
<!DOCTYPE svg PUBLIC "-//W3C//DTD SVG 1.1//EN" "http://www.w3.org/Graphics/SVG/1.1/DTD/svg11.dtd">
<svg version="1.1" id="Layer_1" xmlns="http://www.w3.org/2000/svg" xmlns:xlink="http://www.w3.org/1999/xlink" x="0px" y="0px"
	 width="2305.3px" height="549.508px" viewBox="0 0 2305.3 549.508" enable-background="new 0 0 2305.3 549.508"
	 xml:space="preserve">
<g>
	<g>
		<g>
			<g>
				<g>
					<path fill="#FC4517" d="M1462.277,0h128.704c63.064,0,108.112,40.756,108.112,98.241c0,58.344-45.475,100.389-108.112,100.389
						h-60.062v114.546h-68.642V0z M1579.398,139.426c27.457,0,46.764-17.159,46.764-40.756c0-23.167-18.877-39.467-46.334-39.467
						h-48.908v80.223H1579.398z"/>
					<path fill="#FC4517" d="M1729.988,0h63.493v313.176h-63.493V0z"/>
					<path fill="#FC4517" d="M2063.757,313.176h-59.633v-18.018c-18.877,15.446-42.901,24.455-68.642,24.455
						c-62.207,0-111.972-51.483-111.972-115.835s49.765-115.835,111.972-115.835c25.741,0,49.765,9.009,68.642,24.455V94.381h59.633
						V313.176z M1945.35,260.84c30.458,0,54.914-24.455,54.914-57.061s-24.455-57.486-54.914-57.486
						c-31.32,0-55.773,24.88-55.773,57.486S1914.031,260.84,1945.35,260.84z"/>
					<path fill="#FC4517" d="M2101.09,94.381h59.203v16.3c13.299-15.012,34.321-23.592,59.203-23.592
						c51.053,0,85.804,35.177,85.804,86.231v139.856h-63.496V186.619c0-23.596-15.444-40.756-37.752-40.756
						c-22.308,0-39.47,17.159-39.47,39.038v128.275h-63.493V94.381z"/>
				</g>
				<g>
					<path fill="#FC4517" d="M0,3.219h68.642V254.19h121.84v62.205H0V3.219z"/>
					<path fill="#FC4517" d="M333.784,322.832c-71.646,0-123.985-48.906-123.985-114.976c0-65.641,51.48-116.691,117.977-116.691
						c64.782,0,111.545,48.908,111.545,113.69c0,7.291-0.429,15.871-1.718,23.592H277.582c5.149,24.455,24.882,39.472,55.773,39.472
						c21.452,0,36.466-7.296,52.339-24.455l46.763,34.753C410.576,306.956,374.54,322.832,333.784,322.832z M374.969,181.688
						c-3.433-22.308-21.452-37.325-47.193-37.325c-26.168,0-42.471,15.441-48.906,37.325H374.969z"/>
					<path fill="#FC4517" d="M483.513,249.9c18.021,13.728,36.039,20.59,52.339,20.59c15.017,0,23.167-6.003,23.167-16.3
						c0-9.009-6.435-14.587-26.598-22.738l-9.439-3.86c-40.756-16.305-59.633-34.753-59.633-66.07
						c0-39.897,30.89-70.357,82.37-70.357c25.741,0,54.057,7.723,72.502,20.166l-23.594,46.332
						c-13.299-9.009-27.886-15.017-43.76-15.017c-15.017,0-23.167,5.578-23.167,15.017c0,8.15,6.005,13.728,33.462,25.309
						l7.294,3.006c41.185,17.159,56.631,36.036,56.631,65.636c0,42.044-31.32,71.219-83.659,71.219
						c-32.176,0-66.497-11.586-84.515-27.457L483.513,249.9z"/>
					<path fill="#FC4517" d="M667.136,249.9c18.021,13.728,36.039,20.59,52.339,20.59c15.017,0,23.167-6.003,23.167-16.3
						c0-9.009-6.435-14.587-26.598-22.738l-9.439-3.86c-40.756-16.305-59.633-34.753-59.633-66.07
						c0-39.897,30.89-70.357,82.37-70.357c25.741,0,54.057,7.723,72.502,20.166l-23.594,46.332
						c-13.299-9.009-27.886-15.017-43.76-15.017c-15.017,0-23.167,5.578-23.167,15.017c0,8.15,6.005,13.728,33.462,25.309
						l7.294,3.006c41.185,17.159,56.631,36.036,56.631,65.636c0,42.044-31.32,71.219-83.659,71.219
						c-32.176,0-66.497-11.586-84.515-27.457L667.136,249.9z"/>
					<path fill="#FC4517" d="M1166.778,97.602h59.203v16.3c13.299-15.014,34.323-23.594,59.203-23.594
						c51.053,0,85.801,35.177,85.801,86.231v139.856h-63.493V189.838c0-23.596-15.441-40.756-37.754-40.756
						c-22.306,0-39.467,17.159-39.467,39.038v128.275h-63.493V97.602z"/>
					<g>
						<path fill="#FC4517" d="M1143.257,195.827c-0.022,0.032-0.054,0.054-0.076,0.087l-21.645,23.593
							c-0.033,0.033-0.076,0.076-0.108,0.119L1100,242.99l6.136,41.428c0,0.022,0.011,0.043,0.011,0.065l7.468,50.421
							c0.011,0.033,0.011,0.054,0.022,0.087c3.745,25.465-7.251,37.705-25.13,26.071c-0.022-0.022-0.043-0.022-0.065-0.032
							l-39.328-25.692c-0.022-0.011-0.033-0.022-0.054-0.033l-29.87-19.513l17.932-18.744l-25.021,14.112l-80.028,54.17
							l-19.924,11.244l104.335-131.788l14.675,10.508c0.076,0.043,0.141,0.097,0.206,0.141l17.229,12.327
							c7.76,5.563,13.009,1.526,11.786-8.744l-2.597-21.807c-0.011-0.076-0.022-0.162-0.022-0.238l-2.089-17.532l11.05-10.087
							c0.011-0.011,0.022-0.022,0.022-0.022l12.446-11.353c0.011-0.011,0.022-0.022,0.032-0.033
							c5.422-4.989,3.766-11.233-3.69-14.102c-0.011-0.011-0.022-0.011-0.043-0.022l-16.84-6.429l-14.719-5.617l-6.082-15.92
							c-0.011-0.011-0.022-0.033-0.022-0.054l-7.208-18.852c-0.011-0.033-0.022-0.054-0.033-0.076
							c-3.301-8.55-9.48-10.27-13.885-3.69l-9.989,14.956c-0.033,0.043-0.065,0.098-0.108,0.141l-8.766,13.106l-17.706-1.45
							c-0.076,0.011-0.141,0-0.216-0.011l-22.673-1.851c-10.942-0.898-14.459,5.541-7.586,14.296
							c0.022,0.022,0.043,0.054,0.065,0.076l14.956,18.896c0.011,0.022,0.032,0.043,0.043,0.054l12.348,15.606l-150.831,174.98
							l79.739-154.461l3.517-9.643l13.344-36.612l-23.344,24.383l-23.95-29.274l-39.967-48.874c-0.108-0.13-0.216-0.271-0.314-0.4
							c-19.253-23.896-6.439-39.263,26.428-34.231l60.908,9.329l46.244,7.078l22.088-27.424l22.24-27.619
							c9.697-12.045,22.998-6.775,30.216,11.234c0.043,0.097,0.087,0.206,0.13,0.303l15.205,38.549l13.604,34.513l30.4,13.43
							l31.742,14.037c0.173,0.076,0.357,0.152,0.53,0.238C1148.809,172.916,1152.521,185.632,1143.257,195.827z"/>
						<path fill="#FFCD00" d="M1079.222,197.948c-0.011,0.011-0.022,0.022-0.032,0.033l-12.446,11.353c0,0-0.011,0.011-0.022,0.022
							l-11.05,10.087l2.089,17.532c0,0.076,0.011,0.162,0.022,0.238l2.597,21.807c1.223,10.27-4.026,14.307-11.786,8.744
							l-17.229-12.327c-0.065-0.043-0.13-0.097-0.206-0.141l-14.675-10.508l-16.742,7.446c-0.011,0-0.032,0.011-0.032,0.011
							l-21.45,9.534c-0.022,0.011-0.043,0.011-0.076,0.033c-10.4,4.578-16.482-0.985-13.279-12.273c0-0.022,0.011-0.032,0.011-0.065
							l6.764-23.647l5.39-18.82L964.721,191.4c-0.011-0.011-0.033-0.032-0.043-0.054l-14.956-18.896
							c-0.022-0.022-0.043-0.054-0.065-0.076c-6.872-8.755-3.355-15.195,7.586-14.296l22.673,1.851
							c0.076,0.011,0.141,0.022,0.216,0.011l17.706,1.45l8.766-13.106c0.043-0.043,0.076-0.098,0.108-0.141l9.989-14.956
							c4.405-6.58,10.584-4.859,13.885,3.69c0.011,0.022,0.022,0.043,0.033,0.076l7.208,18.852c0,0.022,0.011,0.043,0.022,0.054
							l6.082,15.92l14.719,5.617l16.84,6.429c0.021,0.011,0.032,0.011,0.043,0.022
							C1082.988,186.714,1084.644,192.959,1079.222,197.948z"/>
					</g>
				</g>
			</g>
		</g>
	</g>
	<g>
		<path fill="#5E5E5E" d="M115.492,440.787h15.653v66.028h32.407v14.44h-48.06V440.787z"/>
		<path fill="#5E5E5E" d="M211.059,522.908c-18.298,0-31.746-12.566-31.746-29.542c0-16.865,13.228-29.982,30.203-29.982
			c16.534,0,28.549,12.676,28.549,29.321c0,1.653-0.11,3.748-0.331,5.842h-42.438c1.433,6.834,7.055,11.243,15.432,11.243
			c5.732,0,9.81-2.094,13.889-6.944l11.574,8.598C230.459,518.83,221.53,522.908,211.059,522.908z M222.523,486.974
			c-0.882-6.394-5.952-10.692-13.117-10.692c-7.386,0-11.905,4.52-13.668,10.692H222.523z"/>
		<path fill="#5E5E5E" d="M316.324,521.255h-13.779v-4.96c-4.96,4.189-11.354,6.614-18.298,6.614
			c-16.204,0-29.211-13.228-29.211-29.762c0-16.535,13.007-29.762,29.211-29.762c6.944,0,13.337,2.425,18.298,6.614v-4.96h13.779
			V521.255z M286.121,509.46c8.708,0,15.653-7.055,15.653-16.314s-6.944-16.314-15.653-16.314c-8.818,0-15.763,7.055-15.763,16.314
			S277.303,509.46,286.121,509.46z"/>
		<path fill="#5E5E5E" d="M337.485,465.038h13.558v4.74c3.197-4.189,8.046-6.614,13.448-6.614c2.425,0,4.96,0.551,7.496,1.543
			l-6.062,13.889c-1.764-0.772-2.866-1.103-4.52-1.103c-6.173,0-9.37,4.52-9.37,13.228v30.534h-14.55V465.038z"/>
		<path fill="#5E5E5E" d="M389.179,465.038h13.558v3.968c3.417-3.748,8.818-5.842,15.211-5.842c13.117,0,22.267,9.259,22.267,22.597
			v35.494h-14.55v-33.069c0-6.614-4.409-11.574-10.692-11.574s-11.244,4.96-11.244,11.133v33.51h-14.55V465.038z"/>
		<path fill="#5E5E5E" d="M558.706,521.255h-13.779v-4.96c-4.96,4.189-11.354,6.614-18.298,6.614
			c-16.204,0-29.211-13.228-29.211-29.762c0-16.535,13.007-29.762,29.211-29.762c6.944,0,13.337,2.425,18.298,6.614v-4.96h13.779
			V521.255z M528.503,509.46c8.708,0,15.653-7.055,15.653-16.314s-6.944-16.314-15.653-16.314c-8.818,0-15.763,7.055-15.763,16.314
			S519.685,509.46,528.503,509.46z"/>
		<path fill="#5E5E5E" d="M579.866,465.038h13.559v3.968c3.417-3.748,8.818-5.842,15.211-5.842c13.118,0,22.267,9.259,22.267,22.597
			v35.494h-14.55v-33.069c0-6.614-4.409-11.574-10.692-11.574s-11.243,4.96-11.243,11.133v33.51h-14.551V465.038z"/>
		<path fill="#5E5E5E" d="M679.29,463.384c6.614,0,12.676,2.205,17.526,5.953v-28.55h14.55v80.468h-13.558v-5.181
			c-4.96,4.299-11.464,6.834-18.519,6.834c-16.204,0-29.211-13.228-29.211-29.762C650.079,476.612,663.086,463.384,679.29,463.384z
			 M681.164,509.46c8.708,0,15.652-7.055,15.652-16.314s-6.944-16.314-15.652-16.314c-8.818,0-15.763,7.055-15.763,16.314
			S672.346,509.46,681.164,509.46z"/>
		<path fill="#5E5E5E" d="M794.474,455.227h-25.353v-14.44h66.468v14.44h-25.353v66.027h-15.763V455.227z"/>
		<path fill="#5E5E5E" d="M867.884,522.908c-18.298,0-31.746-12.566-31.746-29.542c0-16.865,13.228-29.982,30.203-29.982
			c16.535,0,28.55,12.676,28.55,29.321c0,1.653-0.11,3.748-0.331,5.842h-42.438c1.433,6.834,7.055,11.243,15.432,11.243
			c5.732,0,9.811-2.094,13.889-6.944l11.574,8.598C887.285,518.83,878.356,522.908,867.884,522.908z M879.348,486.974
			c-0.882-6.394-5.953-10.692-13.117-10.692c-7.385,0-11.905,4.52-13.668,10.692H879.348z"/>
		<path fill="#5E5E5E" d="M973.15,521.255h-13.779v-4.96c-4.96,4.189-11.354,6.614-18.298,6.614
			c-16.204,0-29.211-13.228-29.211-29.762c0-16.535,13.007-29.762,29.211-29.762c6.944,0,13.338,2.425,18.298,6.614v-4.96h13.779
			V521.255z M942.947,509.46c8.708,0,15.652-7.055,15.652-16.314s-6.944-16.314-15.652-16.314c-8.818,0-15.763,7.055-15.763,16.314
			S934.129,509.46,942.947,509.46z"/>
		<path fill="#5E5E5E" d="M1023.521,522.908c-17.416,0-31.195-13.228-31.195-29.762c0-16.535,13.779-29.762,31.084-29.762
			c11.464,0,21.606,5.622,26.676,14.881l-13.007,7.165c-2.425-5.291-7.606-8.598-13.669-8.598c-8.818,0-15.763,7.165-15.763,16.314
			c0,9.149,6.944,16.314,15.763,16.314c6.724,0,12.566-4.189,14.661-10.472l13.448,6.394
			C1046.889,516.074,1035.977,522.908,1023.521,522.908z"/>
		<path fill="#5E5E5E" d="M1069.153,440.787h14.551v27.227c3.417-3.086,8.487-4.85,14.219-4.85c13.118,0,22.376,9.259,22.376,22.597
			v35.494h-14.55v-33.069c0-6.614-4.52-11.574-10.803-11.574s-11.243,4.96-11.243,11.133v33.51h-14.551V440.787z"/>
		<path fill="#5E5E5E" d="M1148.625,505.271l13.337,6.614l-15.873,28.991l-10.582-5.291L1148.625,505.271z"/>
		<path fill="#5E5E5E" d="M1250.693,440.787h16.534l33.62,80.468h-16.976l-6.724-16.534h-37.258l-6.944,16.534h-16.534
			L1250.693,440.787z M1271.415,490.831l-12.786-31.195l-13.007,31.195H1271.415z"/>
		<path fill="#5E5E5E" d="M1318.038,440.787h14.551v80.468h-14.551V440.787z"/>
		<path fill="#5E5E5E" d="M1353.751,440.787h14.551v80.468h-14.551V440.787z"/>
		<path fill="#5E5E5E" d="M1434.657,439.575c5.291,0,9.479,3.748,9.479,8.818c0,4.96-4.188,8.818-9.479,8.818
			c-5.181,0-9.259-3.748-9.259-8.818C1425.399,443.323,1429.477,439.575,1434.657,439.575z M1427.492,465.038h14.551v56.217h-14.551
			V465.038z"/>
		<path fill="#5E5E5E" d="M1463.205,465.038h13.559v3.968c3.417-3.748,8.818-5.842,15.212-5.842
			c13.117,0,22.266,9.259,22.266,22.597v35.494h-14.55v-33.069c0-6.614-4.409-11.574-10.692-11.574s-11.243,4.96-11.243,11.133
			v33.51h-14.551V465.038z"/>
		<path fill="#5E5E5E" d="M1614.986,439.134c23.92,0,42.879,18.519,42.879,41.887c0,23.479-18.959,41.887-42.879,41.887
			s-42.769-18.408-42.769-41.887C1572.217,457.652,1591.066,439.134,1614.986,439.134z M1614.986,507.807
			c14.551,0,26.015-11.794,26.015-26.786s-11.464-26.786-26.015-26.786c-14.55,0-25.904,11.794-25.904,26.786
			S1600.436,507.807,1614.986,507.807z"/>
		<path fill="#5E5E5E" d="M1677.702,465.038h13.559v3.968c3.417-3.748,8.818-5.842,15.212-5.842
			c13.117,0,22.266,9.259,22.266,22.597v35.494h-14.55v-33.069c0-6.614-4.409-11.574-10.692-11.574s-11.243,4.96-11.243,11.133
			v33.51h-14.551V465.038z"/>
		<path fill="#5E5E5E" d="M1779.661,522.908c-18.299,0-31.746-12.566-31.746-29.542c0-16.865,13.227-29.982,30.202-29.982
			c16.534,0,28.55,12.676,28.55,29.321c0,1.653-0.11,3.748-0.331,5.842h-42.438c1.434,6.834,7.055,11.243,15.433,11.243
			c5.731,0,9.811-2.094,13.889-6.944l11.574,8.598C1799.062,518.83,1790.133,522.908,1779.661,522.908z M1791.124,486.974
			c-0.881-6.394-5.952-10.692-13.117-10.692c-7.385,0-11.904,4.52-13.668,10.692H1791.124z"/>
		<path fill="#5E5E5E" d="M1864.642,440.787h30.975c16.204,0,27.777,10.362,27.777,24.802c0,14.661-11.573,25.243-27.777,25.243
			h-15.322v30.423h-15.652V440.787z M1893.411,476.942c7.606,0,13.338-4.85,13.338-11.354c0-6.283-5.621-11.023-13.228-11.023
			h-13.228v22.376H1893.411z"/>
		<path fill="#5E5E5E" d="M1942.681,440.787h14.551v80.468h-14.551V440.787z"/>
		<path fill="#5E5E5E" d="M2037.698,521.255h-13.778v-4.96c-4.961,4.189-11.354,6.614-18.299,6.614
			c-16.203,0-29.211-13.228-29.211-29.762c0-16.535,13.008-29.762,29.211-29.762c6.945,0,13.338,2.425,18.299,6.614v-4.96h13.778
			V521.255z M2007.494,509.46c8.708,0,15.653-7.055,15.653-16.314s-6.945-16.314-15.653-16.314c-8.818,0-15.763,7.055-15.763,16.314
			S1998.676,509.46,2007.494,509.46z"/>
		<path fill="#5E5E5E" d="M2088.069,522.908c-17.416,0-31.194-13.228-31.194-29.762c0-16.535,13.778-29.762,31.084-29.762
			c11.464,0,21.605,5.622,26.676,14.881l-13.007,7.165c-2.425-5.291-7.606-8.598-13.669-8.598c-8.818,0-15.763,7.165-15.763,16.314
			c0,9.149,6.944,16.314,15.763,16.314c6.725,0,12.566-4.189,14.661-10.472l13.447,6.394
			C2111.438,516.074,2100.525,522.908,2088.069,522.908z"/>
		<path fill="#5E5E5E" d="M2162.802,522.908c-18.299,0-31.746-12.566-31.746-29.542c0-16.865,13.227-29.982,30.202-29.982
			c16.534,0,28.55,12.676,28.55,29.321c0,1.653-0.11,3.748-0.331,5.842h-42.438c1.434,6.834,7.055,11.243,15.433,11.243
			c5.731,0,9.811-2.094,13.889-6.944l11.574,8.598C2182.202,518.83,2173.274,522.908,2162.802,522.908z M2174.265,486.974
			c-0.881-6.394-5.952-10.692-13.117-10.692c-7.385,0-11.904,4.52-13.668,10.692H2174.265z"/>
	</g>
</g>
</svg>
