<svg viewBox="0 0 512 512" class="fl-svg" style="transform: scale(0.5);"><svg xmlns="http://www.w3.org/2000/svg" width="512" height="512" style="" viewBox="0 0 512 512" data-svgdocument="" id="_3FQYy08secpND-MPF2Fyt" class="fl-svgdocument" x="0" y="0" xmlns:xlink="http://www.w3.org/1999/xlink" overflow="hidden" data-bbox="96.31041082535737 131.84170251707647 319.3791783492852 248.31659496584697"><defs id="_kxmUS1jMce4vivfB6kX61" transform="matrix(0.5545341968536377, 0, 0, 0.5545341968536377, -87.42001342773438, 119.5484619140625)"></defs><g transform="matrix(1.9892339706420898, 0, 0, 1.9892339706420898, -253.243896484375, -253.243896484375)"><g id="_-9-HCxCvF5q4j6LeEEYzu" transform="matrix(0.9021629691123962, 0, 0, 0.9021629691123962, 28.596649169921875, 62.22844314575195)"><path id="_4b2UpRTE2HHVFmVp4ADta" d="M243.28,238.72c1.1-2.23,2.32-6.41.74-12.53-2.49-9.63-9.84-16.07-9.84-16.07s-3.32,9.19-.83,18.82c2,7.6,6.24,10.49,8,11.37l0,0s2.88,5.9,12.76,7.08,18.54-3.32,18.54-3.32-7.35-6.43-17.23-7.62C249.32,235.76,245.41,237.36,243.28,238.72Z" fill="#9cc276" transform="matrix(0.5535818934440613, 0, 0, 0.5535818934440613, 162.84715270996094, 145.25843811035156)"></path><path id="_15cG8MEy_daEaPvYnozIN" d="M266.43,217.17c.92-2.31,1.81-6.57-.25-12.55-3.24-9.41-11.07-15.24-11.07-15.24s-2.59,9.42.65,18.83c2.55,7.42,7,10,8.83,10.71l0,0s3.33,5.65,13.27,6.06,18.23-4.77,18.23-4.77-7.83-5.84-17.77-6.24C272.22,213.75,268.45,215.65,266.43,217.17Z" fill="#9cc276" transform="matrix(0.5535818934440613, 0, 0, 0.5535818934440613, 163.2868194580078, 145.6680908203125)"></path><path id="_JU2RfC0AT-07RrmqUvYnJ" d="M295.61,181.42c-6,.67-9.48,3.12-11.25,4.92.56-2.43.8-6.77-2.14-12.37-4.62-8.81-13.24-13.4-13.24-13.4s-1.14,9.7,3.48,18.52c3.64,7,8.47,8.79,10.34,9.26l0,0s4.15,5.09,14,4,17.3-7.46,17.3-7.46S305.5,180.33,295.61,181.42Z" fill="#9cc276" transform="matrix(0.5535818934440613, 0, 0, 0.5535818934440613, 162.88504028320312, 145.5629119873047)"></path><path id="_5asJbzgKxiioIjVuJ8R7y" d="M302.66,147.15c-5.52,2.55-8,6-9.11,8.23-.24-2.48-1.39-6.67-5.95-11.06-7.17-6.9-16.8-8.52-16.8-8.52s2,9.56,9.16,16.46c5.66,5.44,10.81,5.65,12.74,5.5v0s5.54,3.51,14.58-.66,14-12.55,14-12.55S311.7,143,302.66,147.15Z" fill="#9cc276" transform="matrix(0.5535818934440613, 0, 0, 0.5535818934440613, 163.1925811767578, 145.4355926513672)"></path><path id="_d9NL5-DS2DCldvUsqQJYi" d="M292.7,121.83c-.6-2.42-2.37-6.39-7.53-10-8.12-5.75-17.89-5.91-17.89-5.91s3.4,9.16,11.52,14.91c6.41,4.54,11.54,4,13.42,3.54v0s6,2.64,14.32-2.83,12-14.51,12-14.51-9.77-.17-18.08,5.31C295.39,115.67,293.45,119.42,292.7,121.83Z" fill="#9cc276" transform="matrix(0.5535818934440613, 0, 0, 0.5535818934440613, 162.6500701904297, 145.36915588378906)"></path><path id="__noPKG-gbYdqXVR13-0yf" d="M273.16,83.67c-9.67-2.35-18.81,1.11-18.81,1.11s6.54,7.26,16.21,9.6c7.63,1.85,12.19-.57,13.78-1.67l0,0s6.56.24,12.26-7.92,5.81-17.92,5.81-17.92-9.14,3.45-14.84,11.61c-3.48,5-3.91,9.18-3.72,11.7C282.41,88.21,279.3,85.16,273.16,83.67Z" fill="#9cc276" transform="matrix(0.5535818934440613, 0, 0, 0.5535818934440613, 162.8881072998047, 145.1200408935547)"></path><path id="_Z3aDGYWp-gO7JyE5IyRNe" d="M257.27,58c-9.95.1-18,5.68-18,5.68s8.12,5.43,18.07,5.34c7.85-.08,11.68-3.53,13-5l0,0s6.42-1.37,9.95-10.68,1.24-18.8,1.24-18.8-8,5.59-11.54,14.89c-2.16,5.69-1.54,9.86-.74,12.26C267.35,60.08,263.59,57.89,257.27,58Z" fill="#9cc276" transform="matrix(0.5535818934440613, 0, 0, 0.5535818934440613, 162.93238830566406, 145.302734375)"></path><path id="_NVaTB3-zcV3HU4lkanpV0" d="M248.92,40.05l0,0s6-1.45,9.18-10.79.83-18.81.83-18.81a34.88,34.88,0,0,0-10.61,15c-1.93,5.71-1.28,9.88-.47,12.26-1.82-1.58-5.4-3.72-11.36-3.59-9.38.21-16.83,5.9-16.83,5.9s7.75,5.33,17.13,5.12C244.2,45,247.75,41.52,248.92,40.05Z" fill="#9cc276" transform="matrix(0.5535818934440613, 0, 0, 0.5535818934440613, 162.71649169921875, 145.35255432128906)"></path><path id="_4uAYEBFLHvvNT1wTNOaYe" d="M77.31,229.1c-1.58,6.12-.36,10.3.74,12.53-2.13-1.36-6-3-12.07-2.23C56.1,240.58,48.74,247,48.74,247s8.67,4.51,18.54,3.32S80,243.26,80,243.26l0,0c1.72-.88,6-3.77,8-11.37,2.49-9.63-.83-18.82-.83-18.82S79.8,219.46,77.31,229.1Z" fill="#9cc276" transform="matrix(0.5535818934440613, 0, 0, 0.5535818934440613, 162.67222595214844, 145.28611755371094)"></path><path id="_aPUTwP9niQBnB39qdtzSV" d="M56.76,221.86l0,0c1.79-.74,6.28-3.28,8.83-10.71,3.24-9.41.65-18.83.65-18.83s-7.83,5.83-11.07,15.24c-2.06,6-1.17,10.24-.25,12.55-2-1.52-5.78-3.42-11.86-3.17-9.94.41-17.77,6.24-17.77,6.24s8.28,5.18,18.23,4.77S56.76,221.86,56.76,221.86Z" fill="#9cc276" transform="matrix(0.5535818934440613, 0, 0, 0.5535818934440613, 163.1981201171875, 145.70130920410156)"></path><path id="_N3SMoe6NIVcGGmLwsTqMj" d="M38.55,191.29l0,0c1.88-.47,6.7-2.3,10.34-9.26,4.62-8.81,3.48-18.52,3.48-18.52s-8.62,4.59-13.24,13.4c-2.93,5.6-2.7,9.94-2.14,12.37-1.77-1.81-5.2-4.25-11.25-4.92-9.89-1.09-18.51,3.5-18.51,3.5s7.41,6.36,17.3,7.46S38.55,191.29,38.55,191.29Z" fill="#9cc276" transform="matrix(0.5535818934440613, 0, 0, 0.5535818934440613, 162.67776489257812, 145.59613037109375)"></path><path id="_hzlSYwfr7XvVV4xdoEfro" d="M28.62,160.72v0c1.93.15,7.09-.06,12.74-5.5,7.17-6.9,9.16-16.46,9.16-16.46s-9.63,1.62-16.8,8.52c-4.56,4.38-5.71,8.58-5.95,11.06-1.1-2.27-3.59-5.68-9.11-8.23C9.63,145.89,0,147.51,0,147.51s5,8.38,14,12.55S28.62,160.72,28.62,160.72Z" fill="#9cc276" transform="matrix(0.5535818934440613, 0, 0, 0.5535818934440613, 163.08187866210938, 145.45773315429688)"></path><path id="_axG82TcTNbqQ7CzKDwV9I" d="M14.79,124.44c8.31,5.47,14.32,2.83,14.32,2.83v0c1.89.44,7,1,13.42-3.54C50.65,117.94,54,108.78,54,108.78s-9.77.16-17.89,5.91c-5.16,3.65-6.93,7.63-7.53,10-.75-2.41-2.7-6.16-7.78-9.5-8.31-5.47-18.08-5.31-18.08-5.31S6.48,119,14.79,124.44Z" fill="#9cc276" transform="matrix(0.5535818934440613, 0, 0, 0.5535818934440613, 162.9600830078125, 145.4466552734375)"></path><path id="_tICEEB9OiaUmYYFxNJ4Qn" d="M37,95.67l0,0c1.59,1.1,6.15,3.52,13.78,1.67C60.44,94.95,67,87.69,67,87.69s-9.14-3.45-18.81-1.11c-6.15,1.49-9.25,4.53-10.71,6.55.19-2.52-.23-6.72-3.72-11.7C28,73.28,18.91,69.83,18.91,69.83S19,79.6,24.71,87.75,37,95.67,37,95.67Z" fill="#9cc276" transform="matrix(0.5535818934440613, 0, 0, 0.5535818934440613, 162.57810974121094, 145.14219665527344)"></path><path id="_9bXxkh0mthJ8Z7rXBQPoY" d="M51,66.93l0,0c1.27,1.46,5.1,4.92,13,5C73.91,72,82,66.55,82,66.55s-8-5.59-18-5.68C57.74,60.8,54,63,52.08,64.6c.8-2.39,1.42-6.57-.74-12.26C47.81,43,39.79,37.45,39.79,37.45S37.5,46.95,41,56.25,51,66.93,51,66.93Z" fill="#9cc276" transform="matrix(0.5535818934440613, 0, 0, 0.5535818934440613, 163.05184936523438, 145.35255432128906)"></path><path id="_PRHBd8Hq9Tn4F2KLRvmaf" d="M73.46,40.68c.8-2.38,1.46-6.55-.47-12.26a34.88,34.88,0,0,0-10.61-15S60,22.86,63.2,32.2,72.38,43,72.38,43l0,0c1.17,1.47,4.72,5,12.12,5.15,9.38.21,17.13-5.12,17.13-5.12s-7.45-5.68-16.83-5.9C78.86,37,75.28,39.1,73.46,40.68Z" fill="#9cc276" transform="matrix(0.5535818934440613, 0, 0, 0.5535818934440613, 162.7890625, 145.36915588378906)"></path><path id="_mPejcPo0PTZYRXaCIaoor" d="M86.89,21s6.2,1.75,13-4.66S108.59.69,108.59.69s-9.3,1.16-16.15,7.56S86.89,21,86.89,21Z" fill="#9cc276" transform="matrix(0.5535818934440613, 0, 0, 0.5535818934440613, 162.92044067382812, 145.21969604492188)"></path><path id="_vYK5cCBecfW2m7379MaHW" d="M232.06,20.3s1.3-6.33-5.55-12.74S210.36,0,210.36,0s1.8,9.23,8.65,15.64S232.06,20.3,232.06,20.3Z" fill="#9cc276" transform="matrix(0.5535818934440613, 0, 0, 0.5535818934440613, 163.15936279296875, 145.60166931152344)"></path></g><path id="_foRtfNnuBYCy-GHkQcml7" d="M98.73,48.247c-0.379-0.654-1.105-1.044-1.848-0.994l-17.927,1.053C88.96,39.658,92.363,25.823,92.528,25.13  c0.175-0.733-0.077-1.502-0.652-1.989s-1.376-0.608-2.069-0.317L43.469,42.335c-2.07-1.776-6.856-5.552-10.83-6.2  c-0.719-0.118-1.431-0.177-2.117-0.177c-5.998,0-9.383,4.552-10.63,7.589l-7.321,3.325c-0.732,0.333-1.195,1.073-1.172,1.877  c0.022,0.805,0.525,1.518,1.276,1.808l9.042,3.503c0.343,0.538,0.917,1.401,1.693,2.475L3.447,65.668  c-0.666,0.292-1.121,0.923-1.188,1.647s0.264,1.428,0.865,1.838c0.398,0.271,7.226,4.784,19.577,4.784  c4.643,0,10.069-0.645,16.225-2.384c5.453,3.512,12.029,6.13,19.539,6.13c4.745,0,9.546-1.074,14.271-3.191  c14.197-6.365,25.466-23.425,25.938-24.148C99.087,49.712,99.109,48.901,98.73,48.247z M9.052,67.58l17.121-7.5  c2.19,2.62,5.086,5.668,8.609,8.489C21.89,71.838,13.828,69.37,9.052,67.58z M71.099,70.842c-4.206,1.886-8.456,2.842-12.634,2.842  c-20.101,0-33.553-22.051-33.687-22.273c-0.229-0.381-0.578-0.677-0.993-0.837l-5.229-2.026l3.757-1.706  c0.523-0.237,0.919-0.689,1.086-1.239c0.018-0.056,1.778-5.644,7.123-5.644c0.471,0,0.967,0.042,1.473,0.125  c3.177,0.519,8.102,4.545,9.731,6.052c0.576,0.534,1.412,0.681,2.135,0.376l43.511-18.321c-2.12,5.767-7.116,16.237-16.564,20.743  c-0.864,0.412-1.314,1.377-1.076,2.303c0.237,0.927,1.092,1.56,2.054,1.499l21.142-1.242C88.976,56.697,80.591,66.587,71.099,70.842  z" fill="#525252" transform="matrix(0.8309365510940552, 0.2861180901527405, -0.2861180901527405, 0.8309365510940552, 228.2898406982422, 190.80645751953125)"></path></g></svg></svg>