<svg id="Logo_Font_Black" data-name="Logo Font Black" xmlns="http://www.w3.org/2000/svg" width="193.116" height="32" viewBox="0 0 193.116 32">
  <g id="Group_100" data-name="Group 100" transform="translate(122.496)">
    <path id="Path_64" data-name="Path 64" d="M1462.277,0h10.782c5.283,0,9.057,3.414,9.057,8.23,0,4.887-3.809,8.41-9.057,8.41h-5.031v9.6h-5.75Zm9.811,11.68c2.3,0,3.917-1.437,3.917-3.414,0-1.941-1.581-3.306-3.881-3.306h-4.1v6.72Z" transform="translate(-1462.277)" fill="#fff"/>
    <path id="Path_65" data-name="Path 65" d="M1729.988,0h5.319V26.235h-5.319Z" transform="translate(-1707.562)" fill="#fff"/>
    <path id="Path_66" data-name="Path 66" d="M1843.636,106.811h-5V105.3a9.06,9.06,0,0,1-5.75,2.049,9.709,9.709,0,0,1,0-19.407,9.06,9.06,0,0,1,5.75,2.049V88.482h5Zm-9.919-4.384a4.8,4.8,0,1,0-4.672-4.78A4.629,4.629,0,0,0,1833.717,102.427Z" transform="translate(-1793.249 -80.576)" fill="#fff"/>
    <path id="Path_67" data-name="Path 67" d="M2101.089,87.7h4.959v1.365a6.487,6.487,0,0,1,4.96-1.976,6.857,6.857,0,0,1,7.188,7.224v11.716h-5.319v-10.6a3.167,3.167,0,0,0-3.162-3.414,3.245,3.245,0,0,0-3.307,3.27v10.746h-5.319Z" transform="translate(-2047.575 -79.794)" fill="#fff"/>
  </g>
  <g id="Group_102" data-name="Group 102" transform="translate(0 0.271)">
    <path id="Path_68" data-name="Path 68" d="M0,3.219H5.75V24.243H15.957v5.211H0Z" transform="translate(0 -3.219)" fill="#fff"/>
    <path id="Path_69" data-name="Path 69" d="M220.185,110.572c-6,0-10.386-4.1-10.386-9.632a9.7,9.7,0,0,1,9.883-9.775,9.171,9.171,0,0,1,9.344,9.524,12.471,12.471,0,0,1-.144,1.976H215.477c.431,2.049,2.084,3.307,4.672,3.307a5.482,5.482,0,0,0,4.384-2.049l3.917,2.911A10.163,10.163,0,0,1,220.185,110.572Zm3.45-11.824a3.713,3.713,0,0,0-3.953-3.127,4.058,4.058,0,0,0-4.1,3.127Z" transform="translate(-192.224 -83.798)" fill="#fff"/>
    <path id="Path_70" data-name="Path 70" d="M459.141,104.462a7.41,7.41,0,0,0,4.384,1.725c1.258,0,1.941-.5,1.941-1.365,0-.755-.539-1.222-2.228-1.9l-.791-.323c-3.414-1.366-5-2.911-5-5.535,0-3.342,2.588-5.894,6.9-5.894a11.545,11.545,0,0,1,6.073,1.689l-1.976,3.881a6.534,6.534,0,0,0-3.666-1.258c-1.258,0-1.941.467-1.941,1.258,0,.683.5,1.15,2.8,2.12l.611.252c3.45,1.437,4.744,3.019,4.744,5.5,0,3.522-2.624,5.966-7.008,5.966a11.576,11.576,0,0,1-7.08-2.3Z" transform="translate(-418.637 -83.798)" fill="#fff"/>
    <path id="Path_71" data-name="Path 71" d="M642.764,104.462a7.41,7.41,0,0,0,4.384,1.725c1.258,0,1.941-.5,1.941-1.365,0-.755-.539-1.222-2.228-1.9l-.791-.323c-3.414-1.366-5-2.911-5-5.535,0-3.342,2.588-5.894,6.9-5.894a11.546,11.546,0,0,1,6.073,1.689l-1.976,3.881a6.534,6.534,0,0,0-3.666-1.258c-1.258,0-1.941.467-1.941,1.258,0,.683.5,1.15,2.8,2.12l.611.252c3.45,1.437,4.744,3.019,4.744,5.5,0,3.522-2.624,5.966-7.008,5.966a11.576,11.576,0,0,1-7.08-2.3Z" transform="translate(-586.878 -83.798)" fill="#fff"/>
    <path id="Path_72" data-name="Path 72" d="M1166.778,90.919h4.959v1.365a6.485,6.485,0,0,1,4.959-1.976,6.857,6.857,0,0,1,7.188,7.224v11.716h-5.319v-10.6a3.167,3.167,0,0,0-3.163-3.414,3.245,3.245,0,0,0-3.306,3.27v10.746h-5.319Z" transform="translate(-1069.036 -83.012)" fill="#fff"/>
    <g id="Group_101" data-name="Group 101" transform="translate(69.214 3.73)">
      <path id="Path_73" data-name="Path 73" d="M852.794,60.149l-.006.007-1.813,1.976-.009.01-1.8,1.957.514,3.47s0,0,0,.005l.625,4.224a.053.053,0,0,0,0,.007c.314,2.133-.607,3.159-2.105,2.184l-.005,0-3.295-2.152,0,0L842.4,70.2l1.5-1.57-2.1,1.182-6.7,4.538-1.669.942,8.74-11.04,1.229.88.017.012,1.443,1.033c.65.466,1.09.128.987-.732l-.218-1.827a.183.183,0,0,1,0-.02l-.175-1.469.926-.845,0,0,1.042-.951,0,0c.454-.418.315-.941-.309-1.181l0,0-1.411-.539-1.233-.471-.509-1.334a.008.008,0,0,1,0,0l-.6-1.579,0-.006c-.277-.716-.794-.86-1.163-.309l-.837,1.253a.131.131,0,0,1-.009.012l-.734,1.1-1.483-.121a.06.06,0,0,1-.018,0l-1.9-.155c-.917-.075-1.211.464-.635,1.2l.005.006,1.253,1.583,0,0,1.034,1.307L826.237,75.743l6.68-12.939.295-.808,1.118-3.067-1.956,2.043-2.006-2.452-3.348-4.094-.026-.034c-1.613-2-.539-3.289,2.214-2.868l5.1.781,3.874.593,1.85-2.3,1.863-2.314c.812-1.009,1.927-.568,2.531.941l.011.025,1.274,3.229,1.14,2.891L849.4,56.5l2.659,1.176.045.02C853.259,58.229,853.57,59.295,852.794,60.149Z" transform="translate(-826.237 -47.744)" fill="#fff"/>
    </g>
  </g>
</svg>
